<svg width="980" height="818" viewBox="0 0 980 818" fill="none" xmlns="http://www.w3.org/2000/svg">
<path d="M668.1 663.1C614.1 701 551 719.9 486.3 719C477.7 718.9 469.3 718.5 460.9 717.7C457.5 717.4 454.1 716.8 450.6 716.4C444 715.5 437.4 714.7 431 713.4C427 712.6 423.1 711.6 419.3 710.7C413 709.3 406.7 707.8 400.6 705.9C397.6 705 394.7 703.9 391.8 702.9C384.7 700.6 377.7 698.1 370.8 695.2C369.3 694.6 367.7 693.8 366.2 693.2C358.2 689.7 350.3 686 342.5 681.8C342.2 681.6 341.8 681.4 341.5 681.3C315.5 667 291.7 649.2 270.9 628.4C270.6 628.1 270.3 627.7 269.9 627.3C263.4 620.8 257.3 614 251.4 606.9C250.2 605.4 249 603.7 247.7 602.2C205.3 549.1 179.7 481.9 179.7 408.9H261.4L130.7 212.9L0 408.9H81.7C81.7 494.8 108.5 574.5 154 640.3C154.5 641.2 154.9 642.2 155.5 643.1C160.2 649.8 165.5 656 170.5 662.4C172.4 664.8 174.2 667.3 176.1 669.6C183.5 678.7 191.5 687.1 199.6 695.5C200.4 696.3 201.1 697.1 201.9 697.9C229.2 725.2 260.1 748.3 293.7 766.7C294.6 767.2 295.5 767.8 296.4 768.2C306 773.4 316 778.1 326.1 782.6C328.6 783.7 331.1 784.9 333.6 785.9C342.2 789.5 351.1 792.6 360 795.6C364.2 797 368.4 798.5 372.7 799.8C380.5 802.1 388.5 804 396.5 805.9C401.9 807.2 407.1 808.5 412.5 809.5C414.8 810 416.9 810.7 419.1 811C426.7 812.3 434.3 813.1 441.9 814C444.6 814.3 447.3 814.8 450.1 815.1C463.7 816.4 477.3 817.3 490.8 817.3C573.8 817.3 654.8 791.9 724.3 743.3C746.5 727.7 751.9 697.2 736.3 675.1C720.7 652.9 690.2 647.6 668.1 663.1Z" fill="#F3F3F3"/>
<path d="M898.4 408.9C898.4 323.2 871.7 243.7 826.4 178C825.8 176.9 825.3 175.7 824.6 174.7C818.9 166.7 812.8 159.2 806.7 151.7C806 150.8 805.3 149.8 804.6 148.9C763.2 98.5999 711.1 59.8 652.2 34.4C650.6 33.7 649 32.9 647.3 32.2C637.8 28.3 628.2 24.9 618.5 21.7C615 20.5 611.6 19.3 608 18.3C599.6 15.8 591 13.7 582.3 11.7C577.5 10.6 572.8 9.39996 567.9 8.39996C565.5 7.99996 563.3 7.19996 560.9 6.79996C554.4 5.69996 548 5.19996 541.5 4.29996C537 3.79996 532.7 3.09995 528.2 2.59995C517.4 1.59995 506.6 1.19995 495.8 0.999954C493.8 0.999954 492 0.699951 490 0.699951C489.7 0.699951 489.3 0.799957 489 0.799957C406.1 0.799957 325.3 25.9 255.9 74.5C233.7 90 228.3 120.5 243.9 142.7C259.4 164.9 290 170.3 312.1 154.7C365.7 117.2 428.3 98.2 492.4 98.8C501.6 98.8 510.7 99.3 519.7 100.2C522.5 100.5 525.2 100.9 528 101.2C535.4 102.1 542.7 103.2 549.9 104.6C553.1 105.2 556.2 106 559.4 106.8C566.5 108.4 573.5 110.1 580.4 112.2C582.6 112.9 584.7 113.7 587 114.4C594.9 116.9 602.7 119.8 610.3 122.9C611.1 123.2 611.9 123.6 612.6 123.9C658.3 143.5 698.4 173.8 729.6 211.6C729.8 211.8 730 212.1 730.1 212.3C774.1 265.9 800.6 334.3 800.6 408.9H718.9L849.6 604.9L980 409L898.4 408.9Z" fill="#F3F3F3"/>
</svg>
